<svg xmlns="http://www.w3.org/2000/svg" viewBox="0 0 1024 1024"><path d="M173.489 21.386C94.231 36.565 33.122 99.242 20.466 178.112l-.144 1.089c-3.111 20.283-1.063 57.147 4.332 76.8 7.995 29.263 29.145 66.402 44.111 77.47 3.23 2.082 7.176 3.32 11.41 3.32a21.17 21.17 0 0 0 11.555-3.41l-.083.05c2.324-1.733 8.862-11.264 14.533-21.11 37.498-64.898 87.848-118.381 147.939-158.39l1.722-1.079c23.749-15.675 50.294-30.208 70.617-38.636 15.99-6.656 21.701-12.485 21.701-22.252 0-9.492-3.387-15.045-15.714-25.836a194.977 194.977 0 0 0-76.566-41.383l-1.376-.325c-21.031-5.474-60.219-6.971-81.014-3.033zm609.28 0c-35.437 6.772-66.404 22.585-91.397 44.94l.182-.16c-12.327 10.713-15.714 16.266-15.714 25.797 0 9.767 5.711 15.596 21.701 22.252 33.91 14.139 82.708 44.386 113.979 70.656 37.809 31.744 76.446 77.076 100.273 117.563 17.487 29.775 18.983 31.665 26.742 33.753 9.374 2.521 16.187-.591 26.033-11.855 16.542-18.905 31.153-50.373 37.297-80.266 3.151-15.321 3.584-21.662 2.836-43.52-1.103-31.468-5.514-49.349-19.062-76.8-9.885-20.785-22.988-38.448-38.877-53.144l-.114-.104c-22.462-21.411-50.295-37.388-81.267-45.699l-1.323-.302c-21.307-5.553-60.377-7.05-81.29-3.111zm-530.235 46.71c15.557 5.278 34.225 14.533 34.146 16.935 0 .63-7.877 5.317-17.487 10.437-29.624 16.76-54.952 33.785-78.884 52.512l1.375-1.037c-25.599 21.895-48.728 44.799-70.1 69.277l-.674.789c-12.603 15.202-39.345 51.83-41.314 56.556-1.615 3.781-5.632-3.545-11.382-20.598-5.002-14.769-5.671-19.18-6.38-40.487-.63-20.126-.197-26.23 2.796-38.754 13.011-53.611 54.059-95.157 106.379-108.674l1.023-.224c10.791-2.757 17.684-3.23 38.754-2.796 23.591.512 26.86.985 41.748 6.065zm598.607-3.269c53.476 13.256 94.776 54.556 107.82 107.023l.212 1.009c4.057 16.857 4.529 47.695.985 64.354-2.836 13.312-11.422 36.234-13.824 36.903-.906.236-4.766-4.293-8.468-10.122-23.394-36.391-71.326-89.561-105.551-117.13-22.532-17.595-47.858-34.593-74.374-49.746l-3.135-1.65c-9.61-5.12-17.487-9.767-17.487-10.398-.118-3.82 30.641-17.172 48.601-21.11 16.108-3.545 48.64-3.111 65.221.866zM475.294 117.13c-35.328 3.663-74.24 11.894-101.14 21.386C221.617 192.355 113.467 321.97 89.6 479.587c-3.938 25.836-5.159 74.791-2.639 102.321 10.965 111.065 62.708 208.315 139.835 277.998l.375.333 14.73 13.194-48.443 48.404c-52.815 52.736-57.186 58.407-52.933 68.332 1.339 3.111 4.884 7.956 7.877 10.791 4.332 4.096 6.932 5.12 12.997 5.12h7.522l107.244-107.205 15.951 9.492c51.318 30.444 104.999 49.152 166.124 57.895 8.901 1.3 31.508 2.206 53.76 2.206s44.859-.906 53.76-2.206c61.125-8.743 114.806-27.451 166.124-57.895l15.951-9.492 107.244 107.205h7.522c6.065 0 8.665-1.024 12.997-5.12a39.454 39.454 0 0 0 7.774-10.566l.103-.225c4.254-9.925-.118-15.596-52.933-68.332l-48.443-48.404 14.73-13.194c77.501-70.016 129.244-167.266 140.066-276.547l.143-1.784c2.56-27.609 1.3-76.564-2.639-102.321-29.037-185.566-173.705-330.248-356.845-358.993l-2.422-.313c-17.211-2.678-84.165-4.805-99.84-3.151zm84.558 44.032c115.768 14.942 214.016 79.38 274.202 171.045l.9 1.459c22.213 34.068 43.599 85.11 52.46 125.125 7.956 35.84 10.752 87.434 6.814 124.534-17.762 166.912-143.124 304.207-307.121 336.305-21.02 4.532-45.167 7.128-69.921 7.128-1.823 0-3.643-.014-5.459-.042l.274.003c-88.379 0-169.118-28.081-239.774-83.338-16.384-12.8-50.806-47.734-63.449-64.354C154.23 707.189 127.961 629.956 128 541.498a341.424 341.424 0 0 1-.027-4.353c0-40.758 6.859-79.914 19.487-116.377l-.752 2.497c19.535-59.707 48.758-107.087 93.775-152.064 61.794-61.794 135.877-98.619 221.184-109.844 23.473-3.111 74.24-3.19 98.186-.197zm-37.573 78.966c-3.331 1.751-6.065 4.233-8.063 7.246l-.05.08c-1.654 3.308-2.127 35.682-2.127 143.754l-.039 139.5 4.962 5.593 5.002 5.553 93.578.473c86.489.394 94.011.197 99.525-2.56 7.129-3.623 10.201-9.177 10.201-18.393s-3.072-14.769-10.201-18.314c-5.396-2.718-13.076-2.993-83.18-2.993h-77.233V377.108c0-131.348-.039-131.938-8.31-136.35-6.735-3.623-17.762-3.899-24.064-.63z"/></svg>